<?xml version="1.0" standalone="no"?><!DOCTYPE svg PUBLIC "-//W3C//DTD SVG 1.1//EN" "http://www.w3.org/Graphics/SVG/1.1/DTD/svg11.dtd"><svg t="1649487783928" class="icon" viewBox="0 0 1041 1024" version="1.1" xmlns="http://www.w3.org/2000/svg" p-id="7216" xmlns:xlink="http://www.w3.org/1999/xlink" width="203.3203125" height="200"><defs><style type="text/css"></style></defs><path d="M1039.968965 869.66397q5.038609 159.220055-155.189167 154.181445l-832.378261 0 0-1007.721866 987.567428 0 0 853.54042zM852.532698 958.343494q88.679524 5.038609 84.648637-79.610027l0-794.08483-781.992168 0 0 873.694857 697.343531 0zM721.528856 283.169844l159.220055 0 0 65.501921-159.220055 0 0 407.119634q5.038609 137.050174-147.127392 132.011564l-59.45559 0 0-66.509643 55.424703 0q61.471034 5.038609 56.432424-65.501921l0-407.119634-56.432424 0q-60.463312 347.664044-349.679487 515.953595l0-66.509643q106.818518-88.679524 169.801134-199.528929t86.16022-249.915023l-265.030851 0 0-65.501921 415.181409 0 0-142.088783 94.725855 0 0 142.088783z" p-id="7217" fill="#f4ea2a"></path></svg>